<svg xmlns="http://www.w3.org/2000/svg" xmlns:xlink="http://www.w3.org/1999/xlink" viewBox="0 0 200 100"><defs><style>.cls-1{fill:none;}.cls-2{isolation:isolate;}.cls-3{fill:url(#Degradado_sin_nombre_163);}.cls-4{clip-path:url(#clip-path);}.cls-10,.cls-12,.cls-13,.cls-14,.cls-17,.cls-5,.cls-6,.cls-7,.cls-8,.cls-9{mix-blend-mode:overlay;}.cls-5{fill:url(#Degradado_sin_nombre_168);}.cls-6{fill:url(#Degradado_sin_nombre_168-2);}.cls-7{fill:url(#Degradado_sin_nombre_168-3);}.cls-8{fill:url(#Degradado_sin_nombre_166);}.cls-9{fill:url(#Degradado_sin_nombre_166-2);}.cls-10{fill:url(#Degradado_sin_nombre_166-3);}.cls-11{opacity:0.4;}.cls-12{fill:url(#Degradado_sin_nombre_168-4);}.cls-13{fill:url(#Degradado_sin_nombre_166-4);}.cls-14{fill:url(#Degradado_sin_nombre_166-5);}.cls-15,.cls-20,.cls-24,.cls-29{fill:#fff;}.cls-16,.cls-22{fill:#ff4963;}.cls-17{opacity:0.68;fill:url(#Degradado_sin_nombre_228);}.cls-18,.cls-19{fill:#bdbec4;}.cls-19{mix-blend-mode:multiply;}.cls-20{opacity:0.27;}.cls-21{fill:url(#Degradado_sin_nombre_4);}.cls-22{opacity:0.6;}.cls-23{fill:#2e113f;}.cls-24{font-size:18px;font-family:MyriadPro-Regular, Myriad Pro;}.cls-25{letter-spacing:-0.01em;}.cls-26{letter-spacing:0em;}.cls-27{letter-spacing:0em;}.cls-28{letter-spacing:-0.04em;}.cls-29{font-size:36px;font-family:CooperBlack, Cooper Black;}</style><linearGradient id="Degradado_sin_nombre_163" x1="100" y1="17.6" x2="100" y2="92.21" gradientUnits="userSpaceOnUse"><stop offset="0" stop-color="#641ba2"/><stop offset="0.23" stop-color="#621b9e"/><stop offset="0.47" stop-color="#5c1b92"/><stop offset="0.7" stop-color="#531b7e"/><stop offset="0.93" stop-color="#461b62"/><stop offset="1" stop-color="#411b58"/></linearGradient><clipPath id="clip-path"><rect class="cls-1" x="37" width="163" height="100"/></clipPath><linearGradient id="Degradado_sin_nombre_168" x1="-98.58" y1="149.98" x2="-98.58" y2="221.8" gradientTransform="translate(425.55 14.9) rotate(45) scale(1.78 1)" gradientUnits="userSpaceOnUse"><stop offset="0.01" stop-color="#fff" stop-opacity="0"/><stop offset="0.58" stop-color="#fff"/><stop offset="0.68" stop-color="#fff" stop-opacity="0.72"/><stop offset="0.83" stop-color="#fff" stop-opacity="0.34"/><stop offset="0.94" stop-color="#fff" stop-opacity="0.09"/><stop offset="0.99" stop-color="#fff" stop-opacity="0"/></linearGradient><linearGradient id="Degradado_sin_nombre_168-2" x1="-137.52" y1="223.57" x2="-137.52" y2="292.33" xlink:href="#Degradado_sin_nombre_168"/><linearGradient id="Degradado_sin_nombre_168-3" x1="-78.51" y1="184.74" x2="-78.51" y2="253.52" xlink:href="#Degradado_sin_nombre_168"/><linearGradient id="Degradado_sin_nombre_166" x1="-396.46" y1="241.11" x2="-396.46" y2="333.93" gradientTransform="translate(577.27 -33.94) rotate(45) scale(0.7 1.34)" gradientUnits="userSpaceOnUse"><stop offset="0.05" stop-color="#fff" stop-opacity="0"/><stop offset="0.47" stop-color="#fff"/><stop offset="0.6" stop-color="#fff" stop-opacity="0.72"/><stop offset="0.79" stop-color="#fff" stop-opacity="0.34"/><stop offset="0.92" stop-color="#fff" stop-opacity="0.09"/><stop offset="0.99" stop-color="#fff" stop-opacity="0"/></linearGradient><linearGradient id="Degradado_sin_nombre_166-2" x1="-475.81" y1="280.77" x2="-475.81" y2="317.85" xlink:href="#Degradado_sin_nombre_166"/><linearGradient id="Degradado_sin_nombre_166-3" x1="-349.11" y1="226.6" x2="-349.11" y2="319.41" xlink:href="#Degradado_sin_nombre_166"/><linearGradient id="Degradado_sin_nombre_168-4" x1="-118.67" y1="186.04" x2="-118.67" y2="262.14" xlink:href="#Degradado_sin_nombre_168"/><linearGradient id="Degradado_sin_nombre_166-4" x1="-442.73" y1="306.98" x2="-442.73" y2="398.82" xlink:href="#Degradado_sin_nombre_166"/><linearGradient id="Degradado_sin_nombre_166-5" x1="-400.47" y1="253.45" x2="-400.47" y2="346.26" xlink:href="#Degradado_sin_nombre_166"/><linearGradient id="Degradado_sin_nombre_228" x1="9.05" y1="26.15" x2="49.91" y2="26.15" gradientUnits="userSpaceOnUse"><stop offset="0.22" stop-color="#fff"/><stop offset="0.41" stop-color="#fff" stop-opacity="0.72"/><stop offset="0.69" stop-color="#fff" stop-opacity="0.34"/><stop offset="0.89" stop-color="#fff" stop-opacity="0.09"/><stop offset="0.99" stop-color="#fff" stop-opacity="0"/></linearGradient><linearGradient id="Degradado_sin_nombre_4" x1="30.39" y1="9.14" x2="30.39" y2="29.93" gradientUnits="userSpaceOnUse"><stop offset="0" stop-color="#641ba3"/><stop offset="0.22" stop-color="#5f1b98"/><stop offset="0.62" stop-color="#511b7a"/><stop offset="1" stop-color="#411b58"/></linearGradient></defs><title>iconoMesa de trabajo 1</title><g class="cls-2"><g id="Capa_1" data-name="Capa 1"><rect class="cls-3" width="200" height="100"/><g class="cls-4"><polygon class="cls-5" points="130.01 53.12 119.81 46.6 206.95 -6.86 217.15 -0.33 130.01 53.12"/><polygon class="cls-6" points="96.5 -0.49 34.55 37.51 34.55 50.29 111.52 3.07 105.95 -0.49 96.5 -0.49"/><polygon class="cls-7" points="135.88 97.92 125.68 91.4 212.81 37.94 223.01 44.47 135.88 97.92"/><polygon class="cls-8" points="52 80.41 48.21 77.73 165.22 5.94 169 8.62 52 80.41"/><polygon class="cls-9" points="35.97 30.44 85.22 0.22 81.44 -2.46 35.97 25.44 35.97 30.44"/><polygon class="cls-10" points="89.16 90.01 85.38 87.33 202.38 15.54 206.17 18.22 89.16 90.01"/><g class="cls-11"><polygon class="cls-12" points="79.15 53.26 68.96 46.73 156.09 -6.72 166.29 -0.2 79.15 53.26"/><polygon class="cls-13" points="35.75 65.11 75.77 40.56 71.98 37.88 35.75 60.11 35.75 65.11"/><polygon class="cls-14" points="38.3 90.14 34.52 87.46 151.53 15.68 155.31 18.36 38.3 90.14"/></g></g><rect class="cls-15" x="7" y="21.14" width="44.96" height="70.72" rx="17"/><path class="cls-16" d="M52,31.16V29.73a8.59,8.59,0,0,0-8.59-8.59H15.59A8.59,8.59,0,0,0,7,29.73v1.43Z"/><path class="cls-17" d="M9.05,29.14a6.57,6.57,0,0,1,6.54-6H43.37a6.57,6.57,0,0,1,6.54,6Z"/><rect class="cls-18" x="11.04" y="36.97" width="36.12" height="6.31"/><rect class="cls-19" x="27.96" y="24.09" width="2.27" height="32.08" transform="translate(69.23 11.03) rotate(90)"/><rect class="cls-18" x="11.04" y="47.83" width="36.12" height="6.31"/><rect class="cls-19" x="27.96" y="34.95" width="2.27" height="32.08" transform="translate(80.09 21.89) rotate(90)"/><rect class="cls-18" x="11.04" y="58.69" width="36.12" height="6.31"/><rect class="cls-19" x="27.96" y="45.81" width="2.27" height="32.08" transform="translate(90.95 32.75) rotate(90)"/><rect class="cls-16" x="11.06" y="69.95" width="35.6" height="9.62" rx="4.05"/><path class="cls-18" d="M21.92,85.19a1.49,1.49,0,1,1,1.49,1.49A1.49,1.49,0,0,1,21.92,85.19Z"/><path class="cls-18" d="M27.56,85.19a1.49,1.49,0,1,1,1.49,1.49A1.49,1.49,0,0,1,27.56,85.19Z"/><path class="cls-18" d="M33.2,85.19a1.49,1.49,0,1,1,1.49,1.49A1.49,1.49,0,0,1,33.2,85.19Z"/><path class="cls-20" d="M30.39,30.56a14.49,14.49,0,1,1,14.5-14.49A14.51,14.51,0,0,1,30.39,30.56Z"/><path class="cls-15" d="M30.39,28.54A12.47,12.47,0,1,1,42.87,16.07,12.49,12.49,0,0,1,30.39,28.54Z"/><circle class="cls-21" cx="30.39" cy="16.07" r="10.45"/><path class="cls-15" d="M25.69,20.91h9.82a4.52,4.52,0,0,0-3.39-3.84,3.48,3.48,0,1,0-3,0A4.52,4.52,0,0,0,25.69,20.91Z"/><circle class="cls-22" cx="159.3" cy="68.88" r="7.8"/><circle class="cls-16" cx="159.3" cy="68.88" r="4.52"/><path class="cls-23" d="M178.86,68a3.67,3.67,0,0,0-.85,1.19,3.65,3.65,0,0,0-4,.62,3.55,3.55,0,0,0-.91,1.35,3.66,3.66,0,0,0-3.71.76,3.83,3.83,0,0,0-.73.95l-2.75-2.95a3.64,3.64,0,1,0-5.33,5l9.91,10.63-4-.41h-.08a3.65,3.65,0,0,0-2.63,1h0a3.62,3.62,0,0,0-1.15,2.53c-.06,1.7,1.11,3.06,3.21,3.71,2.72.85,5.44,1.51,7.83,2.1,1.75.43,3.4.83,4.7,1.22,1.13.35,4.54,1.69,4.57,1.71a1.24,1.24,0,0,0,1.3-.25l11.39-10.63a1.22,1.22,0,0,0,.27-1.42c-.4-.86-4-8.46-6.12-10.72L184,68.17a3.65,3.65,0,0,0-5.17-.19Zm1.64,3.48"/><path class="cls-15" d="M180.5,71.46a1.18,1.18,0,1,1,1.73-1.61L188,76c1.41,1.5,4,6.62,5.31,9.28L183.1,94.76c-1.09-.43-3.14-1.21-4-1.49-1.37-.41-3-.82-4.84-1.26-2.36-.57-5-1.22-7.67-2.05-.7-.21-1.51-.61-1.49-1.27a1.2,1.2,0,0,1,1.21-1.14l7.18.73a1.24,1.24,0,0,0,1-2.07l-12.16-13a1.18,1.18,0,1,1,1.72-1.61L171.9,80a1.23,1.23,0,0,0,1.81-1.68L171,75.39a1.18,1.18,0,1,1,1.72-1.61l3.83,4.1a1.23,1.23,0,1,0,1.8-1.68l-2.73-2.92a1.21,1.21,0,0,1,0-1.69,1.19,1.19,0,0,1,1.68.08l3.83,4.09a1.23,1.23,0,1,0,1.8-1.68l-2.45-2.62Z"/><text class="cls-24" transform="translate(55.98 53.89)">Sis<tspan class="cls-25" x="20.21" y="0">t</tspan><tspan class="cls-26" x="26.06" y="0">ema de </tspan><tspan class="cls-27" x="85.57" y="0">B</tspan><tspan x="95.4" y="0">oletas</tspan><tspan class="cls-28" x="0" y="21.6">v</tspan><tspan x="7.96" y="21.6">.1.0</tspan></text><text class="cls-29" transform="translate(55.51 31.34)">SBE</text></g></g></svg>